M48
;Layer_Color=9474304
;FILE_FORMAT=4:2
METRIC,LZ
;TYPE=PLATED
T1F00S00C0.30
T2F00S00C0.50
T3F00S00C1.00
T4F00S00C1.30
;TYPE=NON_PLATED
T5F00S00C1.70
T6F00S00C6.35
%
T01
X0177Y-00413
X01815Y-00437
Y-00316
X01809Y-00288
X0179Y-00295
X0183Y-00282
X0185Y-00275
X01871Y-00268
X01864Y-00261
X01857Y-00254
X0184Y-00195
X0182Y-00204
X01957Y-00335
X021Y-0016
X02174Y-00133
X01731Y-00195
X01724Y-00204
X01707Y-00316
X01754Y-00323
X01762Y-00309
X0177Y-00302
X01747Y-00341
X01559Y-00323
X0161Y-00125
X01415Y-00089
X01165
X010819Y-00331
X0136Y-0033
X0086
X00834
X0061
X00665Y-001
X00915Y-00094
X00415Y-00108
X00385Y-00303
X00375Y-00327
X00581Y-00331
T02
X02213Y-00134
X02229Y-0012
Y-001
X02213Y-00086
X02141Y-001
X02073Y-00144
X02062Y-00232
X02048Y-0022
X0203Y-00063
X02053Y-0004
X02168Y-0037
X01918
X01668
X0162Y-00245
X01477Y-00241
X01418Y-0037
X01241Y-0024
X01025Y-00226
X00918Y-0037
X00668
X00596Y-00144
X00811Y-0015
X00381Y-00137
X00233Y-0013
X00417Y-0037
X00168
T03
X0219Y-0018
X02196Y-00045
X02171
X0211Y-001
X0209
X0207
Y-0012
X0209
X0211
X0205
X0203
Y-001
X0205
X0201
X0199
X0197
X0195
X0193
Y-0012
X0195
X0197
X0199
X0201Y-0012
X0191Y-0012
X0189
Y-001
X0191
X0187
X0185Y-001
X0183
Y-0012
X0185
X0187
X0181
X0179
Y-001
X0181
X0189Y-0018
X01915
X0194
X0214
X02165
X0177Y-0012
X0175
Y-001
X0177
X0173
X0173Y-0012
X0169Y-0018
X01665
X0164
X0164Y-00045
X01665
X01456
X01431
X0144Y-0018
X01415
X0139
X0119
X01165
X0114
X01216Y-00045
X01241
X01026Y-00045
X01001
X00811Y-00045
X00786
X00596Y-00045
X0064Y-0018
X00665
X0069
X0089
X00915
X0094
X0044
X00415
X0039
X00381Y-00045
X00356
X00571Y-00045
X00166Y-00045
X00141
X0014Y-0018
X00165
X0019
T04
X001103Y-004327
Y-004073
X002308
Y-004327
X003598
Y-004073
X004802
Y-004327
X006098
Y-004073
X007302
Y-004327
X008598
Y-004073
X009802
Y-004327
X013598
Y-004073
X014802
Y-004327
X016098
Y-004073
X017302
Y-004327
X018598
Y-004073
X019802
Y-004327
X021098
Y-004073
X022302
Y-004327
T05
X02119Y-00023
X01721Y-00023
T06
X02045Y-0033
X00295
M30
